<svg xmlns="http://www.w3.org/2000/svg" xmlns:xlink="http://www.w3.org/1999/xlink" width="34" height="68" viewBox="0 0 34 68"><svg width="34" height="34" viewBox="-5 -5 34 34" id="chevron-circle-right-blue" y="0"><title>chevron-circle-right-blue</title><desc>Created with Sketch.</desc><path d="M11.402 17.848c-.293.293-.76.293-1.054 0l-1.196-1.196c-.293-.293-.293-.76 0-1.054L12.75 12 9.152 8.402c-.293-.293-.293-.76 0-1.054l1.196-1.196c.293-.293.76-.293 1.054 0l5.32 5.32c.294.294.294.762 0 1.055l-5.32 5.32zM21 12c0-4.97-4.03-9-9-9s-9 4.03-9 9 4.03 9 9 9 9-4.03 9-9z" fill="#00AEEF"/></svg>
<svg width="34" height="34" viewBox="-5 -5 34 34" id="chevron-right-blue" y="34"><title>chevron-right-blue</title><desc>Created with Sketch.</desc><path d="M17.963 12c0-.436-.18-.86-.475-1.155l-8.37-8.357C8.823 2.18 8.398 2 7.963 2c-.437 0-.86.18-1.156.488l-.975.963c-.295.296-.475.72-.475 1.156 0 .436.18.86.475 1.168L12.072 12l-6.24 6.24c-.295.294-.475.718-.475 1.154 0 .437.18.86.475 1.168l.975.963c.296.295.72.475 1.156.475.436 0 .86-.18 1.155-.475l8.37-8.357c.295-.308.475-.732.475-1.168z" fill="#00AEEF"/></svg>
</svg>