<svg xmlns="http://www.w3.org/2000/svg" xmlns:xlink="http://www.w3.org/1999/xlink" width="91" height="71" viewBox="0 0 91 71"><svg width="91" height="71" viewBox="-5 -5 91 71" id="tag" y="0"><title>tag</title><desc>Created with Sketch.</desc><g transform="translate(1 1)" fill="none"><path d="M24.71 48.705c.567-.567.567-1.44 0-2.008L7.55 29.537l17.16-17.162c.567-.568.567-1.44 0-2.01l-2.184-2.182c-.567-.568-1.44-.568-2.008 0L.168 28.53c-.566.57-.566 1.442 0 2.01l20.35 20.35c.567.566 1.44.566 2.008 0l2.184-2.185z" fill="#4990E2"/><path d="M50.517 2.113c.218-.742-.22-1.528-.96-1.747l-2.708-.742c-.7-.218-1.486.218-1.704.96L28.858 56.96c-.218.743.218 1.53.96 1.747l2.708.742c.7.22 1.485-.218 1.703-.96L50.516 2.113z" id="aaPath" fill="#D0017D"/><path d="M79.206 30.54c.567-.568.567-1.44 0-2.01L58.856 8.184c-.567-.568-1.44-.568-2.008 0l-2.183 2.183c-.568.568-.568 1.44 0 2.01l17.16 17.16-17.16 17.16c-.568.568-.568 1.442 0 2.01l2.183 2.183c.568.566 1.44.566 2.01 0l20.348-20.35z" fill="#4990E2"/></g></svg>
</svg>