<svg width="24" height="24" viewBox="0 0 24 24" xmlns="http://www.w3.org/2000/svg"><title>chevron-right-blue</title><desc>Created with Sketch.</desc><path d="M17.963 12c0-.436-.18-.86-.475-1.155l-8.37-8.357C8.823 2.18 8.398 2 7.963 2c-.437 0-.86.18-1.156.488l-.975.963c-.295.296-.475.72-.475 1.156 0 .436.18.86.475 1.168L12.072 12l-6.24 6.24c-.295.294-.475.718-.475 1.154 0 .437.18.86.475 1.168l.975.963c.296.295.72.475 1.156.475.436 0 .86-.18 1.155-.475l8.37-8.357c.295-.308.475-.732.475-1.168z" fill="#00AEEF"/></svg>