<svg width="81" height="61" viewBox="0 0 81 61" xmlns="http://www.w3.org/2000/svg"><title>tag</title><desc>Created with Sketch.</desc><g fill="none"><path d="M25.71 49.705c.567-.567.567-1.44 0-2.008L8.55 30.537l17.16-17.162c.567-.568.567-1.44 0-2.01l-2.184-2.182c-.567-.568-1.44-.568-2.008 0L1.168 29.53c-.566.57-.566 1.442 0 2.01l20.35 20.35c.567.566 1.44.566 2.008 0l2.184-2.185z" fill="#4990E2"/><path d="M51.517 3.113c.218-.742-.22-1.528-.96-1.747L47.848.624c-.7-.218-1.486.218-1.704.96L29.858 57.96c-.218.743.218 1.53.96 1.747l2.708.742c.7.22 1.485-.218 1.703-.96L51.516 3.113z" id="Path" fill="#D0017D"/><path d="M80.206 31.54c.567-.568.567-1.44 0-2.01L59.856 9.184c-.567-.568-1.44-.568-2.008 0l-2.183 2.183c-.568.568-.568 1.44 0 2.01l17.16 17.16-17.16 17.16c-.568.568-.568 1.442 0 2.01l2.183 2.183c.568.566 1.44.566 2.01 0l20.348-20.35z" fill="#4990E2"/></g></svg>