<?xml version="1.0" encoding="UTF-8" standalone="no"?>
<svg width="24px" height="24px" viewBox="0 0 24 24" version="1.1" xmlns="http://www.w3.org/2000/svg" xmlns:xlink="http://www.w3.org/1999/xlink" xmlns:sketch="http://www.bohemiancoding.com/sketch/ns">
    <!-- Generator: Sketch 3.3.1 (12002) - http://www.bohemiancoding.com/sketch -->
    <title>chevron-right-blue</title>
    <desc>Created with Sketch.</desc>
    <defs></defs>
    <g id="Page-2" stroke="none" stroke-width="1" fill="none" fill-rule="evenodd" sketch:type="MSPage">
        <g id="chevron-right-blue" sketch:type="MSArtboardGroup" fill="#229ED0">
            <path d="M17.9627816,12 C17.9627816,11.563543 17.783064,11.139923 17.4878137,10.8446727 L9.11810894,2.48780488 C8.82285862,2.17971759 8.3992386,2 7.9627816,2 C7.5263246,2 7.10270458,2.17971759 6.80745426,2.48780488 L5.8318445,3.45057766 C5.53659418,3.74582798 5.35687659,4.16944801 5.35687659,4.60590501 C5.35687659,5.042362 5.53659418,5.46598203 5.8318445,5.77406932 L12.0706122,12 L5.8318445,18.2387677 C5.53659418,18.534018 5.35687659,18.957638 5.35687659,19.394095 C5.35687659,19.830552 5.53659418,20.254172 5.8318445,20.5622593 L6.80745426,21.5250321 C7.10270458,21.8202824 7.5263246,22 7.9627816,22 C8.3992386,22 8.82285862,21.8202824 9.11810894,21.5250321 L17.4878137,13.1681643 C17.783064,12.860077 17.9627816,12.436457 17.9627816,12 L17.9627816,12 Z" id="ï”" sketch:type="MSShapeGroup"></path>
        </g>
    </g>
</svg>