<?xml version="1.0" encoding="UTF-8" standalone="no"?>
<svg width="81px" height="61px" viewBox="0 0 81 61" version="1.1" xmlns="http://www.w3.org/2000/svg" xmlns:xlink="http://www.w3.org/1999/xlink" xmlns:sketch="http://www.bohemiancoding.com/sketch/ns">
    <!-- Generator: Sketch 3.1.1 (8761) - http://www.bohemiancoding.com/sketch -->
    <title>tag</title>
    <desc>Created with Sketch.</desc>
    <defs></defs>
    <g id="Page-1" stroke="none" stroke-width="1" fill="none" fill-rule="evenodd" sketch:type="MSPage">
        <g id="tag" sketch:type="MSLayerGroup" transform="translate(1.000000, 1.000000)">
            <path d="M24.7097742,48.705297 C25.2774389,48.1376323 25.2774389,47.264302 24.7097742,46.6966373 L7.54883393,29.535697 L24.7097742,12.3747568 C25.2774389,11.8070921 25.2774389,10.9337618 24.7097742,10.3660971 L22.5264485,8.18277137 C21.9587838,7.61510668 21.0854535,7.61510668 20.5177888,8.18277137 L0.169192953,28.5313672 C-0.398471738,29.0990319 -0.398471738,29.9723622 0.169192953,30.5400269 L20.5177888,50.8886227 C21.0854535,51.4562874 21.9587838,51.4562874 22.5264485,50.8886227 L24.7097742,48.705297 Z" id="" fill="#4990E2" sketch:type="MSShapeGroup"></path>
            <path d="M50.5166844,2.11312583 C50.7350169,1.37079508 50.2983518,0.584797821 49.556021,0.366465247 L46.8486971,-0.375865502 C46.1500329,-0.594198075 45.3640356,-0.157532929 45.1457031,0.584797821 L28.8580931,56.9582683 C28.6397605,57.700599 29.0764257,58.4865963 29.8187564,58.7049288 L32.5260803,59.4472596 C33.2247446,59.6655922 34.0107418,59.228927 34.2290744,58.4865963 L50.5166844,2.11312583 Z" id="Path" fill="#D0017D" sketch:type="MSShapeGroup"></path>
            <path d="M79.2055845,30.5400269 C79.7732492,29.9723622 79.7732492,29.0990319 79.2055845,28.5313672 L58.8569887,8.18277137 C58.289324,7.61510668 57.4159937,7.61510668 56.848329,8.18277137 L54.6650033,10.3660971 C54.0973386,10.9337618 54.0973386,11.8070921 54.6650033,12.3747568 L71.8259435,29.535697 L54.6650033,46.6966373 C54.0973386,47.264302 54.0973386,48.1376323 54.6650033,48.705297 L56.848329,50.8886227 C57.4159937,51.4562874 58.289324,51.4562874 58.8569887,50.8886227 L79.2055845,30.5400269 Z" id="Path" fill="#4990E2" sketch:type="MSShapeGroup"></path>
        </g>
    </g>
</svg>